<svg xmlns="http://www.w3.org/2000/svg">
 <symbol id="white" stroke-width="20" stroke="#fff" fill="none" viewBox="0,0,550,550">
  <path d="m214,198.5l26.57143,-52l70.85714,0l26.57142,52l-26.57142,52l-70.85714,0l-26.57143,-52z"></path>
  <path d="m214,303l26.57143,-52l70.85715,0l26.57142,52l-26.57142,52.00001l-70.85715,0l-26.57143,-52.00001z"></path>
  <path d="m214,406l26.57143,-52l70.85715,0l26.57142,52l-26.57142,52.00001l-70.85715,0l-26.57143,-52.00001z"></path>
  <path d="m116.5,354.5l26.57143,-52l70.85714,0l26.57143,52l-26.57143,52.00001l-70.85714,0l-26.57143,-52.00001z"></path>
  <path d="m19,303l26.57143,-52l70.85715,0l26.57142,52l-26.57142,52.00001l-70.85715,0l-26.57143,-52.00001z"></path>
  <path d="m116.5,250.5l26.57143,-52l70.85714,0l26.57143,52l-26.57143,52.00001l-70.85714,0l-26.57143,-52.00001z"></path>
  <path d="m311.5,250.5l26.57143,-52l70.85715,0l26.57142,52l-26.57142,52.00001l-70.85715,0l-26.57143,-52.00001z"></path>
  <path d="m19,198.5l26.57143,-52l70.85715,0l26.57142,52l-26.57142,52.00001l-70.85715,0l-26.57143,-52.00001z"></path>
  <path d="m116.5,147l26.57143,-52l70.85714,0l26.57143,52l-26.57143,52.00001l-70.85714,0l-26.57143,-52.00001z"></path>
  <path d="m311.5,147l26.57143,-52l70.85715,0l26.57142,52l-26.57142,52.00001l-70.85715,0l-26.57143,-52.00001z"></path>
  <path d="m311.5,354.5l26.57143,-52l70.85715,0l26.57142,52l-26.57142,52.00001l-70.85715,0l-26.57143,-52.00001z"></path>
  <path d="m409,198.5l26.57143,-52l70.85714,0l26.57143,52l-26.57143,52.00001l-70.85714,0l-26.57143,-52.00001z"></path>
  <path d="m409,303l26.57143,-52l70.85715,0l26.57142,52l-26.57142,52.00001l-70.85715,0l-26.57143,-52.00001z"></path>
 </symbol>
 <symbol id="darkRed" stroke-width="20" stroke="#c00000" fill="none" viewBox="0,0,550,550">
  <path d="m214,198.5l26.57143,-52l70.85714,0l26.57142,52l-26.57142,52l-70.85714,0l-26.57143,-52z"></path>
  <path d="m214,303l26.57143,-52l70.85715,0l26.57142,52l-26.57142,52.00001l-70.85715,0l-26.57143,-52.00001z"></path>
  <path d="m214,406l26.57143,-52l70.85715,0l26.57142,52l-26.57142,52.00001l-70.85715,0l-26.57143,-52.00001z"></path>
  <path d="m116.5,354.5l26.57143,-52l70.85714,0l26.57143,52l-26.57143,52.00001l-70.85714,0l-26.57143,-52.00001z"></path>
  <path d="m19,303l26.57143,-52l70.85715,0l26.57142,52l-26.57142,52.00001l-70.85715,0l-26.57143,-52.00001z"></path>
  <path d="m116.5,250.5l26.57143,-52l70.85714,0l26.57143,52l-26.57143,52.00001l-70.85714,0l-26.57143,-52.00001z"></path>
  <path d="m311.5,250.5l26.57143,-52l70.85715,0l26.57142,52l-26.57142,52.00001l-70.85715,0l-26.57143,-52.00001z"></path>
  <path d="m19,198.5l26.57143,-52l70.85715,0l26.57142,52l-26.57142,52.00001l-70.85715,0l-26.57143,-52.00001z"></path>
  <path d="m116.5,147l26.57143,-52l70.85714,0l26.57143,52l-26.57143,52.00001l-70.85714,0l-26.57143,-52.00001z"></path>
  <path d="m311.5,147l26.57143,-52l70.85715,0l26.57142,52l-26.57142,52.00001l-70.85715,0l-26.57143,-52.00001z"></path>
  <path d="m311.5,354.5l26.57143,-52l70.85715,0l26.57142,52l-26.57142,52.00001l-70.85715,0l-26.57143,-52.00001z"></path>
  <path d="m409,198.5l26.57143,-52l70.85714,0l26.57143,52l-26.57143,52.00001l-70.85714,0l-26.57143,-52.00001z"></path>
  <path d="m409,303l26.57143,-52l70.85715,0l26.57142,52l-26.57142,52.00001l-70.85715,0l-26.57143,-52.00001z"></path>
 </symbol>
</svg>