<svg xmlns="http://www.w3.org/2000/svg">
  <symbol id="qrcode" viewBox="0 0 1024 1024">
    <path d="M85.312 85.312V384H384V85.312H85.312zM0 0h469.248v469.248H0V0z m170.624 170.624h128v128h-128v-128zM0 554.624h469.248v469.248H0V554.624z m85.312 85.312v298.624H384V639.936H85.312z m85.312 85.312h128v128h-128v-128zM554.624 0h469.248v469.248H554.624V0z m85.312 85.312V384h298.624V85.312H639.936z m383.936 682.56H1024v85.376h-298.752V639.936H639.936V1023.872H554.624V554.624h255.936v213.248h128V554.624h85.312v213.248z m-298.624-597.248h128v128h-128v-128z m298.624 853.248h-85.312v-85.312h85.312v85.312z m-213.312 0h-85.312v-85.312h85.312v85.312z"></path>
  </symbol>
  <symbol id="barcode" viewBox="0 0 1024 1024">
     <path d="M0 128 128 128 128 768 0 768zM192 128 256 128 256 768 192 768zM320 128 384 128 384 768 320 768zM512 128 576 128 576 768 512 768zM768 128 832 128 832 768 768 768zM960 128 1024 128 1024 768 960 768zM640 128 672 128 672 768 640 768zM448 128 480 128 480 768 448 768zM864 128 896 128 896 768 864 768zM0 832 64 832 64 896 0 896zM192 832 256 832 256 896 192 896zM320 832 384 832 384 896 320 896zM640 832 704 832 704 896 640 896zM960 832 1024 832 1024 896 960 896zM768 832 896 832 896 896 768 896zM448 832 576 832 576 896 448 896z"></path>
  </symbol>
  <symbol id="apps" viewBox="0 0 1024 1024">
	<path d="M387.264 479.68l-192 0c-52.928 0-96-43.072-96-96l0-192c0-52.928 43.072-96 96-96l192 0c52.928 0 96 43.072 96 96l0 192C483.264 436.64 440.192 479.68 387.264 479.68zM195.264 159.68c-17.632 0-32 14.368-32 32l0 192c0 17.632 14.368 32 32 32l192 0c17.632 0 32-14.368 32-32l0-192c0-17.632-14.368-32-32-32L195.264 159.68zM387.264 927.68l-192 0c-52.928 0-96-43.072-96-96l0-192c0-52.928 43.072-96 96-96l192 0c52.928 0 96 43.072 96 96l0 192C483.264 884.64 440.192 927.68 387.264 927.68zM195.264 607.68c-17.632 0-32 14.336-32 32l0 192c0 17.664 14.368 32 32 32l192 0c17.632 0 32-14.336 32-32l0-192c0-17.664-14.368-32-32-32L195.264 607.68zM832.128 479.68l-192 0c-52.928 0-96-43.072-96-96l0-192c0-52.928 43.072-96 96-96l192 0c52.928 0 96 43.072 96 96l0 192C928.128 436.64 885.056 479.68 832.128 479.68zM640.128 159.68c-17.664 0-32 14.368-32 32l0 192c0 17.632 14.336 32 32 32l192 0c17.664 0 32-14.368 32-32l0-192c0-17.632-14.336-32-32-32L640.128 159.68zM832.128 927.68l-192 0c-52.928 0-96-43.072-96-96l0-192c0-52.928 43.072-96 96-96l192 0c52.928 0 96 43.072 96 96l0 192C928.128 884.64 885.056 927.68 832.128 927.68zM640.128 607.68c-17.664 0-32 14.336-32 32l0 192c0 17.664 14.336 32 32 32l192 0c17.664 0 32-14.336 32-32l0-192c0-17.664-14.336-32-32-32L640.128 607.68z"></path>
  </symbol>
  <symbol id="database" viewBox="0 0 1024 1024">
	<path d="M896 405.333333v128c0 106.026667-171.946667 192-384 192s-384-85.973333-384-192v-128c0 106.026667 171.946667 192 384 192s384-85.973333 384-192z m-768 213.333334c0 106.026667 171.946667 192 384 192s384-85.973333 384-192v128c0 106.026667-171.946667 192-384 192s-384-85.973333-384-192v-128z m384-106.666667c-212.053333 0-384-85.973333-384-192S299.946667 128 512 128s384 85.973333 384 192-171.946667 192-384 192z"></path>
  </symbol>
  <symbol id="earth" viewBox="0 0 1024 1024">
	<path d="M480 64C214.904 64 0 278.904 0 544c0 265.098 214.904 480 480 480 265.098 0 480-214.902 480-480C960 278.904 745.098 64 480 64zM751.59 704c8.58-40.454 13.996-83.392 15.758-128l127.446 0c-3.336 44.196-13.624 87.114-30.68 128L751.59 704zM208.41 384c-8.58 40.454-13.996 83.392-15.758 128L65.208 512c3.336-44.194 13.622-87.114 30.678-128L208.41 384zM686.036 384c9.614 40.962 15.398 83.854 17.28 128L512 512l0-128L686.036 384zM512 320 512 132.662c14.59 4.246 29.044 11.37 43.228 21.37 26.582 18.74 52.012 47.608 73.54 83.486 14.882 24.802 27.752 52.416 38.496 82.484L512 320.002zM331.232 237.516c21.528-35.878 46.956-64.748 73.54-83.486 14.182-10 28.638-17.124 43.228-21.37L448 320l-155.264 0C303.482 289.934 316.352 262.32 331.232 237.516zM448 384l0 128-191.314 0c1.88-44.146 7.666-87.038 17.278-128L448 384zM95.888 704c-17.056-40.886-27.342-83.804-30.678-128l127.444 0c1.762 44.608 7.178 87.546 15.758 128L95.888 704zM256.686 576 448 576l0 128-174.036 0C264.352 663.04 258.566 620.146 256.686 576zM448 768l0 187.34c-14.588-4.246-29.044-11.372-43.228-21.37-26.584-18.74-52.014-47.61-73.54-83.486-14.882-24.804-27.75-52.418-38.498-82.484L448 768zM628.768 850.484c-21.528 35.876-46.958 64.746-73.54 83.486-14.184 9.998-28.638 17.124-43.228 21.37L512 768l155.266 0C656.52 798.066 643.65 825.68 628.768 850.484zM512 704l0-128 191.314 0c-1.88 44.146-7.666 87.04-17.28 128L512 704zM767.348 512c-1.762-44.608-7.178-87.546-15.758-128l112.524 0c17.056 40.886 27.344 83.806 30.68 128L767.348 512zM830.658 320l-95.9 0c-18.638-58.762-44.376-110.294-75.316-151.428 42.536 20.34 81.058 47.616 114.714 81.272C795.636 271.322 814.518 294.782 830.658 320zM185.844 249.844c33.658-33.658 72.18-60.932 114.714-81.272-30.942 41.134-56.676 92.666-75.316 151.428L129.344 320C145.482 294.782 164.366 271.322 185.844 249.844zM129.344 768l95.898 0c18.64 58.762 44.376 110.294 75.318 151.43-42.536-20.34-81.058-47.616-114.714-81.274C164.366 816.678 145.482 793.218 129.344 768zM774.156 838.156c-33.656 33.658-72.18 60.934-114.714 81.274 30.942-41.134 56.678-92.668 75.316-151.43l95.9 0C814.518 793.218 795.636 816.678 774.156 838.156z"></path>
  </symbol>
  <symbol id="log" viewBox="0 0 1024 1024">
	<path d="M707.2 79.9H238.6c-11.6 0-21 9.4-21 21V923c0 11.6 9.4 21 21 21h704.9V316.3L707.2 79.9" fill="none"></path>
	<path d="M943.6 960h-705c-20.4 0-37-16.6-37-37V100.9c0-20.4 16.6-37 37-37h468.6c4.2 0 8.3 1.7 11.3 4.7L954.9 305c3 3 4.7 7.1 4.7 11.3V944c0 8.9-7.2 16-16 16z m-705-864.1c-2.7 0-5 2.2-5 5V923c0 2.7 2.2 5 5 5h689V323l-227-227h-462z"></path>
	<path d="M943.6 332.3H707.2c-8.8 0-16-7.2-16-16V79.9c0-6.5 3.9-12.3 9.9-14.8s12.9-1.1 17.4 3.5L954.9 305c4.6 4.6 5.9 11.5 3.5 17.4-2.5 6-8.3 9.9-14.8 9.9z m-220.4-32H905L723.2 118.6v181.7z"></path>
	<path d="M104.7 414.2h698.8c22.4 0 40.6 19.8 40.6 44.3v301.4c0 24.5-18.2 44.3-40.6 44.3H104.7c-22.4 0-40.6-19.8-40.6-44.3V458.5c-0.1-24.5 18.1-44.3 40.6-44.3z" fill="#B56FE1"></path>
	<path d="M241.2 736c4.5 0 8.9-1.6 13.2-4.9 4.3-3.3 6.4-8.9 6.4-17 0-7.8-2-13.4-6-16.8s-8.6-5.1-13.6-5.1h-74V488.3c0-6-2.3-10.8-6.8-14.2-4.5-3.4-10.4-5.1-17.7-5.1-6.8 0-12.6 1.7-17.4 5.1-4.8 3.4-7.2 8.1-7.2 14.2v220.5c0 7.6 2.4 14 7.2 19.3 4.8 5.3 11.3 7.9 19.6 7.9h96.3z m162.8 7.5c20.4 0 38.1-3.6 53-10.8 15-7.2 27.4-17 37.2-29.5 9.8-12.5 17.1-27.2 21.9-44.2 4.8-17 7.2-35.3 7.2-54.9s-2.4-37.9-7.2-54.7c-4.8-16.9-12.1-31.5-21.9-44C484.4 493 472 483.2 457 476c-15-7.2-32.7-10.8-53-10.8-21.1 0-39.2 3.6-54.2 10.8-15 7.2-27.3 17-37 29.5s-16.8 27.2-21.3 44.2c-4.5 17-6.8 35.2-6.8 54.6 0 20.1 2.5 38.8 7.6 55.9 5 17.1 12.6 31.8 22.7 44.2 10.1 12.3 22.5 22 37.4 28.9s31.9 10.2 51.6 10.2z m0-43c-13.3 0-24.5-2.8-33.4-8.3-8.9-5.5-16.2-12.8-21.7-21.9-5.5-9.1-9.4-19.4-11.7-31-2.3-11.6-3.4-23.3-3.4-35.1 0-13.1 1.3-25.4 3.8-37 2.5-11.6 6.5-21.7 12.1-30.4 5.5-8.7 12.8-15.6 21.7-20.8 8.9-5.2 19.8-7.7 32.7-7.7s23.7 2.5 32.7 7.6c8.9 5 16.2 12 21.7 20.8s9.6 19.1 12.1 31c2.5 11.8 3.8 24.4 3.8 37.8 0 13.3-1.1 25.8-3.4 37.4-2.3 11.6-6.2 21.6-11.7 30.2-5.5 8.6-12.8 15.3-21.7 20.2-9.2 4.7-20.3 7.2-33.6 7.2z m278.2 43c20.4 0 37.6-3.2 51.7-9.6 14.1-6.4 25.6-15.1 34.5-26.1 8.9-10.9 15.4-23.6 19.3-37.9 3.9-14.3 5.9-29.5 5.9-45.3 0-13.1-1.8-22.3-5.3-27.6s-10.4-7.9-20.8-7.9h-63.1c-8.8 0-15.4 1.8-19.6 5.3-4.3 3.5-6.4 9.3-6.4 17.4 0 8.1 2 13.7 6 16.8 4 3.1 10.6 4.7 19.6 4.7h40.4c0 9.8-1.6 18.8-4.9 27-3.3 8.2-7.7 15.2-13.4 21.1-5.7 5.9-12.2 10.6-19.6 14s-15.4 5.1-24 5.1c-11.8 0-22.7-2.3-32.5-6.8s-18.2-10.9-25.3-19.3c-7-8.3-12.5-18.4-16.4-30.2-3.9-11.8-5.9-25.2-5.9-40 0-14.6 2-27.8 6-39.6s9.4-21.9 16.2-30.2c6.8-8.3 14.9-14.7 24.2-19.3 9.3-4.5 19.3-6.8 29.8-6.8 12.1 0 22.6 2 31.5 5.9 8.9 3.9 18.4 11.3 28.5 22.1 3 3 6.3 5 9.8 6 3.5 1 7 1.4 10.6 1.1 3.5-0.3 6.9-1.1 10-2.6 3.1-1.5 5.9-3.3 8.1-5.3 4.5-3.3 6.6-7.2 6.2-11.9-0.4-4.7-2.3-9.4-5.9-14.3-3.5-4.9-8.2-9.8-14-14.7-5.8-4.9-12.1-9.5-18.9-13.8-11.3-6.5-22-10.8-32.1-12.6-10.1-1.9-20.9-2.8-32.5-2.8-20.1 0-38.1 3.6-53.8 10.9-15.7 7.3-29 17.2-39.8 29.8-10.8 12.6-19.1 27.4-24.7 44.6-5.7 17.1-8.5 35.6-8.5 55.5 0 20.9 3 39.8 8.9 56.6 5.9 16.9 14.5 31.3 25.7 43.2 11.2 12 24.7 21.2 40.6 27.8 16.2 6.5 34 9.7 53.9 9.7z" fill="#FFFFFF"></path>
  </symbol>
  <symbol id="scan" viewBox="0 0 1024 1024">
	<path d="M128 669.867V824a72 72 0 0 0 67.776 71.893L200 896h154.133c4.694 0 8.534 3.84 8.534 8.533v46.934a8.533 8.533 0 0 1-8.534 8.533h-148.65A141.483 141.483 0 0 1 64 818.517v-148.65c0-4.694 3.84-8.534 8.533-8.534h46.934c4.693 0 8.533 3.84 8.533 8.534z m832 0v148.65A141.483 141.483 0 0 1 818.517 960h-148.65a8.533 8.533 0 0 1-8.534-8.533v-46.934c0-4.693 3.84-8.533 8.534-8.533H824a72 72 0 0 0 71.893-67.776L896 824V669.867c0-4.694 3.84-8.534 8.533-8.534h46.934c4.693 0 8.533 3.84 8.533 8.534z m0-170.667v46.933a8.533 8.533 0 0 1-8.533 8.534H72.533A8.533 8.533 0 0 1 64 546.133V499.2c0-4.693 3.84-8.533 8.533-8.533h878.934c4.693 0 8.533 3.84 8.533 8.533zM362.667 72.533v46.934a8.533 8.533 0 0 1-8.534 8.533H200a72 72 0 0 0-71.893 67.776L128 200v154.133a8.533 8.533 0 0 1-8.533 8.534H72.533A8.533 8.533 0 0 1 64 354.133v-148.65A141.483 141.483 0 0 1 205.483 64h148.65c4.694 0 8.534 3.84 8.534 8.533zM818.517 64A141.483 141.483 0 0 1 960 205.483v148.65a8.533 8.533 0 0 1-8.533 8.534h-46.934a8.533 8.533 0 0 1-8.533-8.534V200a72 72 0 0 0-67.776-71.893L824 128H669.867a8.533 8.533 0 0 1-8.534-8.533V72.533c0-4.693 3.84-8.533 8.534-8.533h148.65z"></path>
  </symbol>
  <symbol id="services" viewBox="0 0 1024 1024">
	<path d="M688 80v44.992a180.672 180.672 0 0 0-72.992 30.016l-33.024-31.008-44 47.008 32 29.984a180 180 0 0 0-28.992 71.008H496v64h44.992c4.672 26.528 15.168 50.752 30.016 72l-34.016 32.992 46.016 46.016 32.992-34.016a179.776 179.776 0 0 0 72 30.016V528h64v-44.992a180 180 0 0 0 71.008-28.992l29.984 32 47.008-44.032-31.008-32.96c15.072-21.44 25.28-46.24 30.016-73.024H944v-64h-44.992a179.776 179.776 0 0 0-30.016-72l30.016-30.016-45.024-44.992-29.984 30.016a179.776 179.776 0 0 0-72-30.016V80h-64z m32 106.016A117.248 117.248 0 0 1 838.016 304a117.248 117.248 0 0 1-118.016 118.016A117.248 117.248 0 0 1 601.984 304 117.248 117.248 0 0 1 720 185.984zM304.992 374.976l-59.008 24 23.04 57.984a221.12 221.12 0 0 0-75.04 74.016l-56.96-23.008-24 59.008 56.96 22.976a216.832 216.832 0 0 0-6.976 53.024c0 18.24 2.72 36.032 6.976 52.992l-56.96 23.008 24 58.976 56.96-22.976a219.872 219.872 0 0 0 75.008 74.976l-23.008 57.024 59.008 24 23.008-57.024a215.36 215.36 0 0 0 52.992 7.04c18.24 0 36.096-2.752 52.992-7.04l23.04 57.024 58.976-24-23.008-57.024a221.12 221.12 0 0 0 74.016-74.976l57.984 22.976 24-58.976-57.984-23.008c4.224-16.96 6.976-34.784 6.976-52.992 0-18.24-2.752-36.096-6.976-53.024l57.984-22.976-24-59.008-57.984 23.008a220 220 0 0 0-74.016-74.016l23.008-57.984-59.008-24-23.008 57.984a216.896 216.896 0 0 0-52.992-7.008c-18.24 0-36.032 2.784-52.992 7.04l-23.008-58.016z m76 115.008a152.096 152.096 0 0 1 152.992 152.96c0 85.248-67.776 154.016-152.96 154.016a153.792 153.792 0 0 1-154.016-153.984c0-85.216 68.8-153.024 153.984-153.024z" p-id="16648"></path>
  </symbol>
  <symbol id="listAdd" viewBox="0 0 1024 1024">
	<path d="M128 213.333333h768v85.333334H128z m0 170.666667h768v85.333333H128z m0 170.666667h384v85.333333H128z m0 170.666666h384v85.333334H128z m682.666667-42.666666v-128h-85.333334v128h-128v85.333333h128v128h85.333334v-128h128v-85.333333h-39.978667z"></path>
  </symbol>
  <symbol id="calculate" viewBox="0 0 1024 1024">
    <path d="M789.333 64A170.667 170.667 0 0 1 960 234.667v554.666A170.667 170.667 0 0 1 789.333 960H234.667A170.667 170.667 0 0 1 64 789.333V234.667A170.667 170.667 0 0 1 234.667 64h554.666z m-320 469.333H128v256a106.667 106.667 0 0 0 102.037 106.56l4.63 0.107h234.666V533.333z m320-405.333h-256v768h256a106.667 106.667 0 0 0 106.56-102.037l0.107-4.63V234.667a106.667 106.667 0 0 0-102.037-106.56l-4.63-0.107zM396.8 682.667c4.693 0 8.533 3.84 8.533 8.533v46.933a8.533 8.533 0 0 1-8.533 8.534H221.867a8.533 8.533 0 0 1-8.534-8.534V691.2c0-4.693 3.84-8.533 8.534-8.533H396.8z m405.333-149.334c4.694 0 8.534 3.84 8.534 8.534V588.8a8.533 8.533 0 0 1-8.534 8.533H627.2a8.533 8.533 0 0 1-8.533-8.533v-46.933c0-4.694 3.84-8.534 8.533-8.534h174.933z m0-106.666c4.694 0 8.534 3.84 8.534 8.533v46.933a8.533 8.533 0 0 1-8.534 8.534H627.2a8.533 8.533 0 0 1-8.533-8.534V435.2c0-4.693 3.84-8.533 8.533-8.533h174.933zM469.333 128H234.667a106.667 106.667 0 0 0-106.56 102.037l-0.107 4.63v234.666h341.333V128zM332.8 213.333c4.693 0 8.533 3.84 8.533 8.534v55.466H396.8c4.693 0 8.533 3.84 8.533 8.534V332.8a8.533 8.533 0 0 1-8.533 8.533h-55.467V396.8a8.533 8.533 0 0 1-8.533 8.533h-46.933a8.533 8.533 0 0 1-8.534-8.533v-55.467h-55.466a8.533 8.533 0 0 1-8.534-8.533v-46.933c0-4.694 3.84-8.534 8.534-8.534h55.466v-55.466c0-4.694 3.84-8.534 8.534-8.534H332.8z"></path>
  </symbol>
  <symbol id="users" viewBox="0 0 1024 1024">
    <path d="M409.6 128c113.152 0 204.8 93.056 204.8 208S522.752 544 409.6 544c-113.152 0-204.8-93.056-204.8-208S296.448 128 409.6 128z m0 475.456c136.704 0 409.6 68.224 409.6 203.712V960H0v-152.832C0 671.68 272.896 603.52 409.6 603.52zM887.488 960v-168c0-115.456-133.12-197.248-276.288-214.464 24.832-3.008 74.368 0 94.592 0 136.704 0 318.208 78.976 318.208 214.464V960h-136.512zM576 532.16a207.808 207.808 0 0 0 136.512-196.16c0-90.624-56.96-167.68-136.512-196.16 21.376-7.68 44.352-11.84 68.288-11.84 113.152 0 204.8 93.056 204.8 208s-91.648 208-204.8 208c-23.936 0-46.912-4.16-68.288-11.84z"></path>
  </symbol>
  <symbol id="man" viewBox="0 0 1024 1024">
    <path d="M511.4 213.2h-0.4c-50 0-91-40.6-91-90.6 0-50 40.8-90.6 91-90.6S602 72.6 602 122.6c0 24.2-9.4 47-26.6 64-17 17.2-39.8 26.6-64 26.6zM442.4 992c-28.8 0-54-21-54-60.8l2-555.2h-20v210c0 18.6-6 30.2-12.8 36.6-8.6 8.2-18.2 12.8-30.4 12.8-12.4 0-21.8-4.6-30.4-12.8-6.8-6.4-12.8-17.8-12.8-36.6V342.8c0-27.6 8.8-55.6 27.6-76.8 20.8-23.2 47.2-36 78-36h244.6c30.8 0 57.2 12.8 78 36.2 18.8 21.2 27.6 49 27.6 76.6V586c0 14.6-3.4 27.6-13.2 36.6-8.8 8-18.6 12.4-31 12.4s-22.2-4.4-31-12.4c-9.8-9-13.2-22-13.2-36.6V376h-18v555.2c0 39.4-26.8 60.8-55.6 60.8-26.8 0-52.6-18.6-54.8-59.6V650h-24v281.8c-1.4 39.4-27.6 60.2-56.6 60.2z"></path>
  </symbol>
  <symbol id="woman" viewBox="0 0 1024 1024">
    <path d="M576 96c0 53.024-42.976 96-96 96s-96-42.976-96-96c0-53.024 42.976-96 96-96s96 42.976 96 96z"></path>
	<path d="M719.008 512l48.992-35.488-133.28-206.112c-5.92-8.992-15.968-14.4-26.72-14.4l-256 0c-10.752 0-20.8 5.408-26.72 14.4l-133.28 206.112 48.992 35.488 110.656-143.584 38.464 89.728-134.112 245.856 122.656 0 21.344 320 64 0 0-320 32 0 0 320 64 0 21.344-320 122.656 0-134.112-245.856 38.464-89.728 110.656 143.584z"></path>
  </symbol>
  <symbol id="link" viewBox="0 0 1024 1024">
	<path d="M320 128H192c-35.2 0-64 28.8-64 64v128c0 35.2 28.8 64 64 64h128c35.2 0 64-28.8 64-64V192c0-35.2-28.8-64-64-64zM704 384h128c35.2 0 64-28.8 64-64V192c0-35.2-28.8-64-64-64h-128c-35.2 0-64 28.8-64 64v128c0 35.2 28.8 64 64 64z m0-192h128v128h-128V192zM320 640H192c-35.2 0-64 28.8-64 64v128c0 35.2 28.8 64 64 64h128c35.2 0 64-28.8 64-64v-128c0-35.2-28.8-64-64-64z m0 192H192v-128h128v128zM832 640h-128c-35.2 0-64 28.8-64 64v128c0 35.2 28.8 64 64 64h128c35.2 0 64-28.8 64-64v-128c0-35.2-28.8-64-64-64z"></path>
	<path d="M896 512h-64c-85.472 0-165.824-33.28-226.272-93.728S512 277.472 512 192V128c0-70.4-57.6-128-128-128H128C57.6 0 0 57.6 0 128v256c0 70.4 57.6 128 128 128h64c85.472 0 165.824 33.28 226.272 93.728S512 746.528 512 832v64c0 70.4 57.6 128 128 128h256c70.4 0 128-57.6 128-128v-256c0-70.4-57.6-128-128-128z m64 384c0 16.96-6.688 32.992-18.848 45.152S912.96 960 896 960h-256c-16.96 0-32.992-6.688-45.152-18.848S576 912.96 576 896v-64c0-212.064-171.936-384-384-384H128c-16.96 0-32.992-6.688-45.152-18.848S64 400.96 64 384V128c0-16.96 6.688-32.992 18.848-45.152S111.04 64 128 64h256c16.96 0 32.992 6.688 45.152 18.848S448 111.04 448 128v64c0 212.064 171.936 384 384 384h64c16.96 0 32.992 6.688 45.152 18.848S960 623.04 960 640v256z"></path>
  </symbol>
  <symbol id="bubbles" viewBox="0 0 1024 1024">
    <path d="M1088 901.152a116.8 116.8 0 0 0 64 104.192v15.936a237.44 237.44 0 0 1-205.248-72.032c-26.208 6.976-54.016 10.752-82.784 10.752-159.072 0-288-114.624-288-256s128.928-256 288-256 288 114.624 288 256c0 55.36-19.776 106.592-53.344 148.48a116.32 116.32 0 0 0-10.656 48.704zM512 0c278.464 0 504.992 180.608 511.84 405.504A392.384 392.384 0 0 0 864 372c-95.552 0-185.824 33.44-254.144 94.176-70.848 62.976-109.856 147.424-109.856 237.824 0 44.672 9.536 87.904 27.744 127.776a629.12 629.12 0 0 1-95.584-4.832C322.176 936.928 190.912 956.64 64 959.552v-26.912C132.544 899.072 192 837.888 192 768c0-9.76-0.768-19.328-2.176-28.704C74.016 663.04 0 546.528 0 416 0 186.24 229.216 0 512 0z"></path>
  </symbol>
  <symbol id="camera" viewBox="0 0 1024 1024">
    <path d="M810.666667 277.333333h-54.613334l-13.653333-42.666666a128 128 0 0 0-121.173333-85.333334H402.773333A128 128 0 0 0 281.6 236.8l-13.653333 42.666667H213.333333a128 128 0 0 0-128 128v341.333333a128 128 0 0 0 128 128h597.333334a128 128 0 0 0 128-128v-341.333333a128 128 0 0 0-128-130.133334z m42.666666 469.333334a42.666667 42.666667 0 0 1-42.666666 42.666666H213.333333a42.666667 42.666667 0 0 1-42.666666-42.666666v-341.333334a42.666667 42.666667 0 0 1 42.666666-42.666666h85.333334a42.666667 42.666667 0 0 0 42.666666-29.013334l23.04-69.973333a42.666667 42.666667 0 0 1 40.533334-29.013333h218.453333a42.666667 42.666667 0 0 1 40.533333 29.013333l23.04 69.973333a42.666667 42.666667 0 0 0 38.4 29.013334h85.333334a42.666667 42.666667 0 0 1 42.666666 42.666666z m-341.333333-384a170.666667 170.666667 0 1 0 170.666667 170.666666 170.666667 170.666667 0 0 0-170.666667-170.666666z m0 256a85.333333 85.333333 0 1 1 85.333333-85.333334 85.333333 85.333333 0 0 1-85.333333 85.333334z"></path>
  </symbol>
  <symbol id="film" viewBox="0 0 1024 1024">
    <path d="M0 128v768h1024V128H0z m192 704H64v-128h128v128z m0-256H64v-128h128v128z m0-256H64V192h128v128z m576 512H256V192h512v640z m192 0h-128v-128h128v128z m0-256h-128v-128h128v128z m0-256h-128V192h128v128z m-576 0v384l256-192z"></path>
  </symbol>
  <symbol id="number" viewBox="0 0 1024 1024">
    <path d="M960 1024H64a64 64 0 0 1-64-64V64a64 64 0 0 1 64-64h896a64 64 0 0 1 64 64v896a64 64 0 0 1-64 64z m0-896a64 64 0 0 0-64-64H128a64 64 0 0 0-64 64v768a64 64 0 0 0 64 64h768a64 64 0 0 0 64-64V128z m-128 640h-128a64 64 0 0 1 0-128h64V576h-64a64 64 0 0 1 0-128h64V384h-64a64 64 0 0 1 0-128h128a64 64 0 0 1 64 64v384a64 64 0 0 1-64 64z m-320-128a64 64 0 0 1 0 128H384a64 64 0 0 1-64-64V512a64 64 0 0 1 64-64h64V384H384a64 64 0 0 1 0-128h128a64 64 0 0 1 64 64v192a64 64 0 0 1-64 64H448v64h64z m-320 128a64 64 0 0 1-64-64V320a64 64 0 0 1 128 0v384a64 64 0 0 1-64 64z"></path>
  </symbol>
  <symbol id="folderOpen" viewBox="0 0 1024 1024">
    <path d="M987.428571 434.285714H864V304.457143c0-20.228571-16.342857-36.571429-36.571429-36.571429H467.428571L333.371429 139.657143a9.314286 9.314286 0 0 0-6.285715-2.514286H36.571429c-20.228571 0-36.571429 16.342857-36.571429 36.571429v676.571428c0 20.228571 16.342857 36.571429 36.571429 36.571429h797.714285c14.857143 0 28.342857-9.028571 33.942857-22.857143l153.142858-379.428571c1.714286-4.342857 2.628571-9.028571 2.628571-13.714286 0-20.228571-16.342857-36.571429-36.571429-36.571429z m-205.714285 0H198.857143c-14.857143 0-28.342857 9.028571-33.942857 22.857143L82.285714 661.942857V219.428571h215.428572l136.685714 130.742858H781.714286V434.285714z"></path>
  </symbol>
  <symbol id="yen" viewBox="0 0 1024 1024">
    <path d="M896 64h-160L512 506.256 288 64H128l224.736 416H256v96h147.128L432 638v34h-176v96h176v192h160v-192h176v-96h-176v-34l29.782-62H768v-96h-96.578L896 64z"></path>
  </symbol>
  <symbol id="company" viewBox="0 0 1024 1024">
	<path d="M737.371884 214.39681v-214.39681h-262.891326A436.961117 436.961117 0 0 0 37.519442 436.961117v583.976071H978.823529V399.696909z m-102.093718 704.44666H139.613161V436.961117A335.122632 335.122632 0 0 1 474.480558 102.093719h160.797608z m241.451645 0H741.710867V345.587238l136.039881 104.390828z"></path>
	<path d="M310.109671 573.000997h206.229312v102.093719h-206.229312zM310.109671 364.219342h206.229312v102.093719h-206.229312z"></path>
  </symbol>
  <symbol id="payment" viewBox="0 0 1024 1024">
    <path d="M512 1024c-56.096-89.344-97.184-137.728-123.296-145.184C201.216 825.248 64 652.672 64 448 64 200.576 264.576 0 512 0s448 200.576 448 448c0 203.168-135.232 374.72-320.608 429.632-26.88 7.968-69.376 56.768-127.392 146.368z m341.472-581.504A10.496 10.496 0 0 0 864 432s-0.736-24.896-1.76-26.528C848.544 214.72 690.24 64 496 64 292.768 64 128 228.768 128 432 128 635.264 292.768 800 496 800a365.44 365.44 0 0 0 237.888-88.064l67.04 67.04v-196.224h-201.44l74.656 69.44a281.472 281.472 0 0 1-178.144 63.68 283.84 283.84 0 0 1-283.872-283.84c0-156.8 127.072-283.904 283.872-283.904 153.248 0 277.76 121.472 283.36 273.344h0.512v10.56c0 5.76 4.736 10.464 10.528 10.464h63.072zM641.28 247.68h-73.92l-72.064 90.24-69.472-90.24H348.672l88.832 104.448H348.736v62.368h112.256v57.888H348.736v62.56h112.256v97.44h72.576v-97.44h109.76v-62.56h-109.76v-57.92h109.76v-62.336h-90.176l88.128-104.448z"></path>
  </symbol>
  <symbol id="build" viewBox="0 0 1024 1024">
    <path d="M512 64C264.8 64 64 264.8 64 512s200.8 448 448 448 448-200.8 448-448S759.2 64 512 64zM128 512c0-212 172-384 384-384s384 172 384 384c0 83.2-26.4 159.2-71.2 222.4L620.8 530.4c34.4-71.2 21.6-159.2-37.6-218.4-52.8-52.8-128-68-193.6-47.2-2.4 12-3.2 15.2-5.6 27.2l64 60v56l-40 40h-56l-60-64c-12 2.4-15.2 3.2-27.2 5.6C244 456 260 531.2 312 584c59.2 59.2 147.2 71.2 218.4 37.6l204 204c-62.4 44.8-139.2 71.2-222.4 71.2C300 896 128 724 128 512z"></path>
  </symbol>
  <symbol id="barChart" viewBox="0 0 1024 1024">
    <path d="M365.714286 512l0 292.571429-146.285714 0 0-292.571429 146.285714 0zm219.428571-292.571429l0 585.142857-146.285714 0 0-585.142857 146.285714 0zm585.142857 658.285714l0 73.142857-1170.285714 0 0-877.714286 73.142857 0 0 804.571429 1097.142857 0zm-365.714286-512l0 438.857143-146.285714 0 0-438.857143 146.285714 0zm219.428571-219.428571l0 658.285714-146.285714 0 0-658.285714 146.285714 0z"></path>
  </symbol>
  <symbol id="pieChart" viewBox="0 0 1024 1024">
    <path d="M438.857143 508.571429l312 312q-60.571429 61.714286-141.428572 96T438.857143 950.857143q-119.428571 0-220.285714-58.857143T58.857143 732.285714 0 512t58.857143-220.285714T218.571429 132 438.857143 73.142857v435.428572z m106.857143 3.428571h441.714285q0 89.714286-34.285714 170.571429T857.142857 824z m405.142857-73.142857H512V0q119.428571 0 220.285714 58.857143T892 218.571429 950.857143 438.857143z"></path>
  </symbol>
  <symbol id="compass" viewBox="0 0 1024 1024">
    <path d="M543.98861 1023.99968a31.99933 31.99933 0 0 1-31.99933-31.99933V512.0104H31.99933a31.99933 31.99933 0 0 1-13.535717-60.990723l959.979901-447.99062a31.99933 31.99933 0 0 1 42.527109 42.527109l-447.99062 959.979901A31.99933 31.99933 0 0 1 543.98861 1023.99968zM176.25231 448.01174H543.98861a31.99933 31.99933 0 0 1 31.99933 31.99933v367.7363L925.772617 98.227063 176.25231 448.01174z"></path>
  </symbol>
  <symbol id="clubs" viewBox="0 0 1024 1024">
    <path d="M786.816 392.768a204.704 204.704 0 0 0-149.856 64.704c-16 16.992-43.776 37.12-73.792 54.816 14.112-53.856 58.688-121.696 89.632-151.456a209.216 209.216 0 0 0 64-151.488c0-114.88-91.488-208.096-204.8-209.312-113.312 1.216-204.8 94.432-204.8 209.312 0 59.68 24.352 113.344 64 151.488 30.944 29.76 75.52 97.6 89.632 151.456-30.048-17.696-57.792-37.824-73.792-54.816a204.704 204.704 0 0 0-149.856-64.704c-114.4 0-207.072 93.664-207.072 209.312s92.704 209.344 207.072 209.344c59.04 0 112.096-25.344 149.856-65.44 16.8-17.856 46.432-40.128 78.304-58.624-3.008 147.68-73.536 256.16-145.312 298.912V1024h384v-37.728c-71.808-42.72-142.336-151.232-145.312-298.912 31.84 18.496 61.504 40.768 78.304 58.624 37.76 40.096 90.816 65.44 149.856 65.44 114.4 0 207.072-93.696 207.072-209.344s-92.704-209.312-207.072-209.312z"></path>
  </symbol>
  <symbol id="spades" viewBox="0 0 1024 1024">
    <path d="M817.568 348.16c-193.568-143.872-260.256-259.008-305.568-348.16l0 0c0 0 0 0 0 0l0 0c-45.28 89.12-112 204.288-305.568 348.16-330.048 245.28-19.392 587.68 253.76 399.232-17.792 116.928-78.528 202.176-140.192 238.88l0 37.728 384.032 0 0-37.728c-61.696-36.704-122.4-121.952-140.224-238.88 273.12 188.448 583.808-153.952 253.76-399.232z"></path>
  </symbol>
  <symbol id="diamonds" viewBox="0 0 1024 1024">
    <path d="M512 0 192 512 512 1024 832 512z"></path>
  </symbol>
  <symbol id="dice" viewBox="0 0 1024 1024">
    <path d="M864 192H352c-88 0-160 72-160 160v512c0 88 72 160 160 160h512c88 0 160-72 160-160V352c0-88-72-160-160-160zM416 896a96 96 0 1 1 0-192 96 96 0 0 1 0 192z m0-384a96 96 0 1 1 0-192 96 96 0 0 1 0 192z m192 192a96 96 0 1 1 0-192 96 96 0 0 1 0 192z m192 192a96 96 0 1 1 0-192 96 96 0 0 1 0 192z m0-384a96 96 0 1 1 0-192 96 96 0 0 1 0 192z m28.768-384C813.824 55.2 749.056 0 672 0H160C72 0 0 72 0 160v512c0 77.056 55.2 141.824 128 156.768V192c0-35.2 28.8-64 64-64h636.768z"></path>
  </symbol>
  <symbol id="truck" viewBox="0 0 1024 1024">
    <path d="M1248 704h-32V487.8c0-25.4-10.2-49.8-28.2-67.8L988 220.2c-18-18-42.4-28.2-67.8-28.2H832V96c0-53-43-96-96-96H96C43 0 0 43 0 96v640c0 53 43 96 96 96h32c0 106 86 192 192 192s192-86 192-192h256c0 106 86 192 192 192s192-86 192-192h96c17.6 0 32-14.4 32-32v-64c0-17.6-14.4-32-32-32zM320 928c-53 0-96-43-96-96s43-96 96-96 96 43 96 96-43 96-96 96z m640 0c-53 0-96-43-96-96s43-96 96-96 96 43 96 96-43 96-96 96z m160-416H832V288h88.2l199.8 199.8V512z"></path>
  </symbol>
  <symbol id="command" viewBox="0 0 1024 1024">
    <path d="M816 624h-96V400h96c106.032 0 192-85.952 192-192S922.048 16 816 16 624 101.968 624 208v96H400v-96c0-106.048-85.968-192-192-192S16 101.968 16 208s85.968 192 192 192h96v224h-96C101.968 624 16 709.968 16 816c0 106.048 85.968 192 192 192s192-85.952 192-192v-96h224v96c0 106.048 85.952 192 192 192 106.032 0 192-85.952 192-192 0-106.032-85.968-192-192-192z m-96-416a96 96 0 1 1 96 96h-96v-96zM304 816a96 96 0 1 1-96-96h96v96z m0-512h-96a96 96 0 1 1 96-96v96z m320 320H400V400h224v224z m192 288a96 96 0 0 1-96-96v-96h112v1.616c45.36 7.648 80 46.848 80 94.384a96 96 0 0 1-96 96z"></path>
  </symbol>
  <symbol id="fire" viewBox="0 0 1024 1024">
    <path d="M320.997969 1024c-68.253867-142.011562-31.903003-223.385019 20.543358-300.022624 57.438205-83.965376 72.253742-167.066779 72.253742-167.066779s45.150589 58.686166 27.103153 150.491297c79.773507-88.797225 94.813037-230.264804 82.781413-284.439111 180.314365 126.012062 257.367957 398.835536 153.531202 601.037218 552.366739-312.534233 137.403706-780.135621 65.149964-832.837974 24.095247 52.670354 28.639105 141.851567-19.999375 185.114215-82.333427-312.278241-285.975063-376.276241-285.975063-376.276241 24.095247 161.050967-87.293272 337.141464-194.681916 468.721352-3.775882-64.221993-7.775757-108.540608-41.534702-169.978688-7.583763 116.668354-96.732977 211.737383-120.860223 328.62973-32.702978 158.267054 24.479235 274.167432 241.752445 396.595606z"></path>
  </symbol>
  <symbol id="word" viewBox="0 0 1024 1024">
    <path d="M920.64 216.07a32.37 32.37 0 0 0-35.94-36.41c-99.41-1.93-198.92 0-298.53-0.87v-76.2H530.5c-142.67 26.01-285.43 50.86-428.1 76.39V845.6c141.99 25.43 283.98 49.7 425.98 75.81h57.8v-74.85h279.36c15.89-0.96 33.43 0 47.01-9.63 10.89-17.24 8.09-38.53 9.05-57.8-0.96-187.37 0.68-375.4-0.96-563.06zM413.7 650.35h-53.51c-12.58-52.9-33.57-130.09-42-171.01h-0.35c-8.68 42.51-30.24 122.92-42.99 171.01h-53.47l-60.81-238.89h55.09c22.39 109.76 32.58 158.45 35.38 184.73h0.35c9.08-43.88 32.15-127.03 46.08-184.73h46.41c12.28 45.83 36.44 138.52 44.22 182.24h0.35c7.93-52.6 31.39-145.12 39.78-182.24h50.17l-64.7 238.89z m479.58 166.63H586.17v-76.2h241.98v-38.53H586.17v-47.2h241.98v-38.54H586.17v-47.2h241.98v-38.53H586.17v-48.16h241.98v-37.09H586.17v-48.16h241.98V359.8H586.17v-47.68h241.98v-38.05H586.17V207.4h307.11v609.58z"></path>
  </symbol>
  <symbol id="excel" viewBox="0 0 1024 1024">
	<path d="M920.64 216.07a32.37 32.37 0 0 0-35.94-36.41c-99.41-1.93-198.92 0-298.53-0.87v-76.2H530.5c-142.67 26.01-285.43 50.86-428.1 76.39V845.6c141.99 25.43 283.98 49.7 425.98 75.81h57.8v-74.85h279.36c15.89-0.96 33.43 0 47.01-9.63 10.89-17.24 8.09-38.53 9.05-57.8-0.96-187.37 0.68-375.4-0.96-563.06zM449.16 669.2H242.44V378.76h205.95v51.47h-145v62.23h138.9v51.47h-138.9v73.79h153.22l-7.45 51.48z m444.12 147.78H586.17v-76.2h241.98v-38.53H586.17v-47.2h241.98v-38.54H586.17v-47.2h241.98v-38.53H586.17v-48.16h241.98v-37.09H586.17v-48.16h241.98V359.8H586.17v-47.68h241.98v-38.05H586.17V207.4h307.11v609.58z"></path>
  </symbol>
  <symbol id="pdf" viewBox="0 0 1024 1024">
	<path d="M1008 464h-72c-4.4 0-8-3.6-8-8V314.5c0-17-6.7-33.3-18.8-45.3L658.8 18.8C646.7 6.7 630.5 0 613.5 0H144c-26.5 0-48 21.5-48 48v408c0 4.4-3.6 8-8 8H16c-8.8 0-16 7.2-16 16v400c0 8.8 7.2 16 16 16h80c0 35.3 14.3 67.3 37.5 90.5 23.2 23.2 55.2 37.5 90.5 37.5h656c26.5 0 48-21.5 48-48v-64c0-8.8 7.2-16 16-16h64c8.8 0 16-7.2 16-16V480c0-8.8-7.2-16-16-16zM704 154.5l69.5 69.5H708c-2.2 0-4-1.8-4-4v-65.5zM864 952c0 4.4-3.6 8-8 8H224c-35.3 0-64-28.7-64-64h696c4.4 0 8 3.6 8 8v48zM242.2 784.4V575.7H314c51.9 0 77.9 22 77.9 66 0 21.4-7.8 38.5-23.5 51.4-15.7 12.9-35.3 19.1-58.8 18.5h-22.9v72.8h-44.5z m195.3 0V575.7h72.1c74.1 0 111.1 33.9 111.1 101.7 0 32.2-10.4 58.1-31.1 77.7-20.7 19.5-47.5 29.3-80.3 29.3h-71.8z m340.4-118.7v36.4h-68.6v82.3h-44.5V575.7h119v36.4h-74.5v53.6h68.6zM864 456c0 4.4-3.6 8-8 8H168c-4.4 0-8-3.6-8-8V72c0-4.4 3.6-8 8-8h408c35.3 0 64 28.6 64 64v144c0 8.8 7.2 16 16 16h144c35.3 0 64 28.6 64 64v104z"></path>
	<path d="M345.1 643.5c0 22.7-13.1 34.1-39.2 34.1h-19.3v-67.4h19.7c25.9 0 38.8 11.1 38.8 33.3zM574 678.1c0 21.5-6 38.5-18 51.1-12 12.6-28.6 18.9-49.7 18.9H482v-136h24.1c20.1 0 36.5 5.8 49 17.4 12.6 11.6 18.9 27.8 18.9 48.6z"></path>
  </symbol>
  <symbol id="ppt" viewBox="0 0 1024 1024">
	<path d="M357.47 394.33h-57.82v96.29h56.28c34.13 0 58.25-13.13 58.25-47.96-0.01-35.18-25.45-48.33-56.71-48.33z"></path>
	<path d="M920.64 216.07a32.37 32.37 0 0 0-35.94-36.41c-99.41-1.93-198.92 0-298.53-0.87v-76.2H530.5c-142.67 26.01-285.43 50.86-428.1 76.39V845.6c141.99 25.43 283.98 49.7 425.98 75.81h57.8v-74.85h279.36c15.89-0.96 33.43 0 47.01-9.63 10.89-17.24 8.09-38.53 9.05-57.8-0.96-187.37 0.68-375.4-0.96-563.06zM365.21 549.32h-65.57v127.36h-73.8V335.63h141.09c72.47 0 121.66 40.78 121.66 105.61 0 74.09-56.1 108.08-123.38 108.08z m528.07 267.66H586.17v-76.2h241.98v-38.53H586.17v-47.2h241.98v-38.54H586.17v-47.2h241.98v-38.53H586.17v-48.16h241.98v-37.09H586.17v-48.16h241.98V359.8H586.17v-47.68h241.98v-38.05H586.17V207.4h307.11v609.58z"></path>
  </symbol>
  <symbol id="zip" viewBox="0 0 1024 1024">
	<path d="M661.15 72L860 261.81V952H164V72h497.15M666 0H152a60 60 0 0 0-60 60v904a60 60 0 0 0 60 60h720a60 60 0 0 0 60-60V256.67a60 60 0 0 0-18.57-43.4L707.39 16.6A60 60 0 0 0 666 0z"></path>
	<path d="M530 284H288a36 36 0 1 1 0-72h242a36 36 0 0 1 0 72zM896 295H684a36 36 0 0 1-36-36V47a36 36 0 0 1 72 0v176h176a36 36 0 1 1 0 72zM530 416H288a36 36 0 1 1 0-72h242a36 36 0 0 1 0 72z"></path>
	<path d="M92 555m20 0l582 0q20 0 20 20l0 276q0 20-20 20l-582 0q-20 0-20-20l0-276q0-20 20-20Z"></path>
	<path d="M206.37 807.64v-25.85l89.58-129.46v-1.53h-87.37v-32.44h135.9v25.82l-89.3 129.35v1.67h92.08v32.45zM378.32 807.64V618.36h40.21v189.28zM457.64 807.64V618.36h77.18q30.26 0 47.54 18t17.28 45.58q0 28-17.31 45.8t-47.78 17.78H498v62.13z m40.21-92.91H519q19.64 0 29.75-7.5t10.1-25.3q0-15.7-8.51-24.25t-23.73-8.55h-28.76z" fill="#FFFFFF"></path>
  </symbol>
  
  <symbol id="sortAsc" viewBox="0 0 1024 1024">
	<path d="M320 768l0-768-128 0 0 768-160 0 224 224 224-224-160 0z"></path>
	<path d="M448 576l576 0 0 128-576 0 0-128z"></path>
	<path d="M448 384l448 0 0 128-448 0 0-128z"></path>
	<path d="M448 192l320 0 0 128-320 0 0-128z"></path>
	<path d="M448 0l192 0 0 128-192 0 0-128z"></path>
  </symbol>
  <symbol id="sortDesc" viewBox="0 0 1024 1024">
	<path d="M320 768l0-768-128 0 0 768-160.01024 0 224.01024 224.01024 224.01024-224.01024-160.01024 0z"></path>
	<path d="M448 0l576 0 0 128-576 0 0-128z"></path>
	<path d="M448 192l448 0 0 128-448 0 0-128z"></path>
	<path d="M448 384l320 0 0 128-320 0 0-128z"></path>
	<path d="M448 576l192 0 0 128-192 0 0-128z"></path>
  </symbol>
  <symbol id="redo" viewBox="0 0 1024 1024">
	<path d="M576 248.384l0-248.384 384 384-384 384 0-253.824c-446.752-10.496-427.584 303.776-313.856 509.824-280.704-303.424-221.088-789.568 313.856-775.616z"></path>
  </symbol>
  <symbol id="undo" viewBox="0 0 1024 1024">
	<path d="M761.856 1024c113.728-206.048 132.896-520.32-313.856-509.824l0 253.824-384-384 384-384 0 248.384c534.976-13.952 594.56 472.224 313.856 775.616z"></path>
  </symbol>
  <symbol id="forward" viewBox="0 0 1024 1024">
	<path d="M262.144 0c-113.728 206.048-132.896 520.288 313.856 509.824l0-253.824 384 384-384 384 0-248.384c-534.976 13.952-594.56-472.224-313.856-775.616z"></path>
  </symbol>
  <symbol id="reply" viewBox="0 0 1024 1024">
	<path d="M448 775.61856l0 248.38144-384-384 384-384 0 253.82912c446.75072 10.48576 427.58144-303.80032 313.856-509.82912 280.71936 303.4112 221.10208 789.56544-313.856 775.61856z"></path>
  </symbol>
  <symbol id="bell" viewBox="0 0 1024 1024">
	<path d="M512 1024c70.64 0 127.94-57.3 127.94-128H384.06c0 70.7 57.3 128 127.94 128z m430.78-299.42c-38.64-41.52-110.94-103.98-110.94-308.58 0-155.4-108.96-279.8-255.88-310.32V64c0-35.34-28.64-64-63.96-64s-63.96 28.66-63.96 64v41.68C301.12 136.2 192.16 260.6 192.16 416c0 204.6-72.3 267.06-110.94 308.58-12 12.9-17.32 28.32-17.22 43.42 0.22 32.8 25.96 64 64.2 64h767.6c38.24 0 64-31.2 64.2-64 0.1-15.1-5.22-30.54-17.22-43.42z"></path>
  </symbol>
  <symbol id="zhifubao" viewBox="0 0 1024 1024">
	<path d="M512 0C509.22737 0 233.998135 0.744223 0.474686 62.806013l0 448.145592 0 0.555059c0.426285 5.818792 7.917359 93.944367 71.873454 198.890444 38.799054 63.68345 90.436396 120.723068 153.473313 169.588668 78.332562 60.735866 174.603736 108.920298 286.177659 143.20961 111.247992-34.224481 207.295367-82.192219 285.488498-142.665208 62.998729-48.715512 114.646728-105.606819 153.524823-169.071798 64.377051-105.154779 72.076827-194.23772 72.511993-199.957933l0-0.555059L1023.524426 62.806013C790.008081 0.744223 514.783287 0 512 0zM980.89147 509.655876c-1.121663 11.583411-10.407574 88.34227-66.23672 179.533546-36.173848 59.059144-84.369825 112.091682-143.250462 157.618048-71.129231 55.015652-158.355167 99.290694-259.414056 131.706128-101.271144-32.459838-188.700453-76.903618-260.048155-132.21767C192.992168 800.596383 144.816616 747.411093 108.751116 688.213406 53.085379 596.86849 44.159146 521.011047 43.107642 509.730476L43.107642 96.028724C262.681798 43.616964 508.546202 42.640061 511.999112 42.634732c3.447581 0.005329 249.31465 0.976903 468.89147 53.393992L980.89147 509.655876z"></path>
	<path d="M727.770448 381.038539c0 0-0.019538 0.000888-0.022202 0.000888l0.05595-0.123445L560.841622 380.915982l0-82.659356 210.025368 0 0-44.617846-210.025368 0 0-84.725951-44.849639 0 0 84.725951-255.469142 0 0 44.617846 255.469142 0 0 82.659356L324.769343 380.915982l0 44.613406 52.38867 0c31.727161 64.896586 73.182504 114.505522 117.600529 152.412929-108.236465 65.768695-234.235701 77.54571-234.235701 77.54571l0 44.789249c0 0 153.23708-5.786821 280.237197-87.622026 122.969946 81.836093 231.236607 87.975487 231.236607 87.975487l0-48.629367c0 0-81.821883-11.465295-184.779518-73.24023C643.274514 532.551829 694.490899 468.846177 727.770448 381.038539zM540.341746 546.81462c-39.874536-30.808872-77.643401-70.430301-107.211605-121.28612l217.752674 0C619.591709 476.119667 580.857486 515.779284 540.341746 546.81462z"></path>
  </symbol>
  <symbol id="weixin" viewBox="0 0 1024 1024">
	<path d="M498.816 345.056c26.336 0 43.936-17.632 43.936-43.904 0-26.56-17.568-43.744-43.936-43.744s-52.832 17.184-52.832 43.744c0.032 26.272 26.496 43.904 52.832 43.904z m-245.728-87.648c-26.336 0-52.96 17.184-52.96 43.744 0 26.272 26.624 43.904 52.96 43.904 26.24 0 43.808-17.632 43.808-43.904-0.032-26.56-17.568-43.744-43.808-43.744zM1024 626.112c0-138.88-128.832-257.216-286.976-269.536 0.224-1.728 0.32-3.52-0.064-5.312-31.712-147.84-190.688-259.296-369.824-259.296C164.704 91.968 0 233.12 0 406.624c0 93.088 47.52 176.96 137.568 243.104l-31.392 94.368c-2.016 6.144-0.192 12.896 4.704 17.152a16.109 16.109 0 0 0 10.496 3.904 16.26 16.26 0 0 0 7.168-1.696L246.4 704.48l14.528 2.944c36.288 7.456 67.616 13.92 106.208 13.92a405.7 405.7 0 0 0 34.176-1.472c4.576-0.384 8.448-2.688 11.072-6.016C454.88 820.192 572 896.96 709.824 896.96c35.296 0 71.04-8.512 103.104-16.544l90.848 49.664a16.06 16.06 0 0 0 7.68 1.984 15.99 15.99 0 0 0 10.048-3.552c5.056-4.096 7.136-10.848 5.248-17.024l-23.2-77.152C981.344 772.864 1024 699.328 1024 626.112z m-625.408 61.856c-10.4 0.896-20.96 1.344-31.424 1.344-35.328 0-65.216-6.112-99.776-13.248L247.296 672a15.457 15.457 0 0 0-10.272 1.376l-88.288 44.192 22.944-68.928a16.014 16.014 0 0 0-6.016-18.176C76.96 568.64 32 493.312 32 406.624c0-155.84 150.336-282.656 335.136-282.656 163.36 0 308 99.392 337.856 231.584-171.296 2.24-309.888 122.656-309.888 270.56 0 21.504 3.264 42.336 8.768 62.432-1.664-0.416-3.424-0.736-5.28-0.576z m476.864 127.584a16.02 16.02 0 0 0-5.696 17.376l15.136 50.336-62.112-33.984a15.876 15.876 0 0 0-7.68-1.984c-1.312 0-2.624 0.16-3.904 0.512-33.312 8.416-67.776 17.088-101.344 17.088-155.904 0-282.72-107.136-282.72-238.816s126.816-238.784 282.72-238.784C862.784 387.296 992 496.64 992 626.08c0 65.664-41.376 132.96-116.544 189.472zM612.992 511.968c-17.568 0-35.136 17.696-35.136 35.232 0 17.664 17.568 35.104 35.136 35.104 26.4 0 43.84-17.44 43.84-35.104 0-17.568-17.44-35.232-43.84-35.232z m193.024 0c-17.312 0-34.88 17.696-34.88 35.232 0 17.664 17.568 35.104 34.88 35.104 26.304 0 44.064-17.44 44.064-35.104 0-17.568-17.728-35.232-44.064-35.232z"></path>
  </symbol>
  <symbol id="settle" viewBox="0 0 1024 1024">
	<path d="M260.125 588.88l546.277 0 0 50.089-546.277 0 0-50.089zM258.793 781.037l546.272 0 1.266 53.712-546.206 0-1.331-53.712zM553.801 392.334l252.6 0 0 50.914-252.6 0 0-50.914zM608.075 195.662l198.326 0 0 51.863-198.326 0 0-51.863zM851.983 992l-662.768 0c-43.677 0-79.163-37.266-79.163-82.977l0-794.046c0-45.712 35.486-82.977 79.163-82.977l662.768 0c43.677 0 79.162 37.266 79.162 82.977l0 793.985c0 45.773-35.55 83.038-79.162 83.038l0 0 0 0 0 0zM178.994 82.215c-8.952 0-16.444 9.398-16.444 20.444l0 818.68c0 11.113 7.555 20.444 16.444 20.444l683.271 0c8.952 0 16.442-9.398 16.442-20.444l0-818.68c0-11.11-7.555-20.444-16.442-20.444l-683.271 0zM473.112 340.084c7.173 12.253 10.857 26.603 10.857 43.044 0 25.141-7.492 46.149-22.474 62.915-15.047 16.758-36.63 26.722-65.007 29.706l0 43.107-36.058 0 0-42.915c-47.169-4.888-76.434-32.314-87.67-82.271l55.8-14.604c5.143 31.426 22.221 47.169 51.298 47.169 13.582 0 23.615-3.366 30.026-10.096 6.412-6.788 9.651-14.853 9.651-24.377 0-9.904-3.239-17.33-9.651-22.347-6.348-5.08-20.632-11.487-42.66-19.297-19.808-6.918-35.362-13.714-46.534-20.505-11.11-6.667-20.188-16.062-27.17-28.184-6.983-12.127-10.412-26.284-10.412-42.282 0-21.074 6.282-40.122 18.666-56.943 12.504-16.887 31.99-27.235 58.719-30.981l0-33.265 36.058 0 0 33.265c40.313 4.827 66.47 27.615 78.405 68.434l-49.837 20.441c-9.712-27.992-24.63-42.024-45.01-42.024-10.157 0-18.347 3.113-24.44 9.397-6.219 6.282-9.332 13.84-9.332 22.727 0 9.076 2.981 15.998 8.952 20.885 5.966 4.824 18.661 10.857 38.214 17.967 21.396 7.81 38.283 15.3 50.407 22.155 12.19 6.982 21.839 16.63 29.202 28.882l0 0 0 0 0 0z"></path>
  </symbol>
  <symbol id="folderOpen" viewBox="0 0 1024 1024">
    <path d="M928 444H820V330.4c0-17.7-14.3-32-32-32H473L355.7 186.2c-1.5-1.4-3.5-2.2-5.5-2.2H96c-17.7 0-32 14.3-32 32v592c0 17.7 14.3 32 32 32h698c13 0 24.8-7.9 29.7-20l134-332c1.5-3.8 2.3-7.9 2.3-12 0-17.7-14.3-32-32-32z m-180 0H238c-13 0-24.8 7.9-29.7 20L136 643.2V256h188.5l119.6 114.4H748V444z" p-id="4457"></path>
  </symbol>
</svg>